<svg width="24" height="25" viewBox="0 0 24 25" fill="none" xmlns="http://www.w3.org/2000/svg">
<path d="M12 21.85L10.55 20.55C8.86667 19.0333 7.475 17.725 6.375 16.625C5.275 15.525 4.4 14.5375 3.75 13.6625C3.1 12.7875 2.64583 11.9833 2.3875 11.25C2.12917 10.5167 2 9.76667 2 9C2 7.43333 2.525 6.125 3.575 5.075C4.625 4.025 5.93333 3.5 7.5 3.5C8.36667 3.5 9.19167 3.68333 9.975 4.05C10.7583 4.41667 11.4333 4.93333 12 5.6C12.5667 4.93333 13.2417 4.41667 14.025 4.05C14.8083 3.68333 15.6333 3.5 16.5 3.5C18.0667 3.5 19.375 4.025 20.425 5.075C21.475 6.125 22 7.43333 22 9C22 9.76667 21.8708 10.5167 21.6125 11.25C21.3542 11.9833 20.9 12.7875 20.25 13.6625C19.6 14.5375 18.725 15.525 17.625 16.625C16.525 17.725 15.1333 19.0333 13.45 20.55L12 21.85ZM12 19.15C13.6 17.7167 14.9167 16.4875 15.95 15.4625C16.9833 14.4375 17.8 13.5458 18.4 12.7875C19 12.0292 19.4167 11.3542 19.65 10.7625C19.8833 10.1708 20 9.58333 20 9C20 8 19.6667 7.16667 19 6.5C18.3333 5.83333 17.5 5.5 16.5 5.5C15.7167 5.5 14.9917 5.72083 14.325 6.1625C13.6583 6.60417 13.2 7.16667 12.95 7.85H11.05C10.8 7.16667 10.3417 6.60417 9.675 6.1625C9.00833 5.72083 8.28333 5.5 7.5 5.5C6.5 5.5 5.66667 5.83333 5 6.5C4.33333 7.16667 4 8 4 9C4 9.58333 4.11667 10.1708 4.35 10.7625C4.58333 11.3542 5 12.0292 5.6 12.7875C6.2 13.5458 7.01667 14.4375 8.05 15.4625C9.08333 16.4875 10.4 17.7167 12 19.15Z" fill="white"/>
</svg>
