<svg width="24" height="25" viewBox="0 0 24 25" fill="none" xmlns="http://www.w3.org/2000/svg">
<mask id="mask0_34_452" style="mask-type:alpha" maskUnits="userSpaceOnUse" x="0" y="0" width="24" height="25">
<rect y="0.5" width="24" height="24" fill="#D9D9D9"/>
</mask>
<g mask="url(#mask0_34_452)">
<path d="M19.5 21.5C19.0833 21.5 18.7292 21.3542 18.4375 21.0625C18.1458 20.7708 18 20.4167 18 20C18 19.5833 18.1458 19.2292 18.4375 18.9375C18.7292 18.6458 19.0833 18.5 19.5 18.5C19.9167 18.5 20.2708 18.6458 20.5625 18.9375C20.8542 19.2292 21 19.5833 21 20C21 20.4167 20.8542 20.7708 20.5625 21.0625C20.2708 21.3542 19.9167 21.5 19.5 21.5ZM10 22.5C8.33333 22.5 6.91667 22.3042 5.75 21.9125C4.58333 21.5208 4 21.05 4 20.5C4 20.1167 4.275 19.775 4.825 19.475C5.375 19.175 6.1 18.9333 7 18.75V20.5H9V2.5L17 6.4L11 9.5V18.55C12.4333 18.6333 13.625 18.8542 14.575 19.2125C15.525 19.5708 16 20 16 20.5C16 21.05 15.4167 21.5208 14.25 21.9125C13.0833 22.3042 11.6667 22.5 10 22.5Z" fill="white"/>
</g>
</svg>
