<svg width="20" height="20" viewBox="0 0 20 20" fill="none" xmlns="http://www.w3.org/2000/svg">
<mask id="mask0_34_721" style="mask-type:alpha" maskUnits="userSpaceOnUse" x="0" y="0" width="20" height="20">
<rect width="20" height="20" fill="#D9D9D9"/>
</mask>
<g mask="url(#mask0_34_721)">
<path d="M16.2497 17.4998C15.9025 17.4998 15.6073 17.3783 15.3643 17.1353C15.1212 16.8922 14.9997 16.5971 14.9997 16.2498C14.9997 15.9026 15.1212 15.6075 15.3643 15.3644C15.6073 15.1214 15.9025 14.9998 16.2497 14.9998C16.5969 14.9998 16.892 15.1214 17.1351 15.3644C17.3781 15.6075 17.4997 15.9026 17.4997 16.2498C17.4997 16.5971 17.3781 16.8922 17.1351 17.1353C16.892 17.3783 16.5969 17.4998 16.2497 17.4998ZM8.33301 18.3332C6.94412 18.3332 5.76356 18.17 4.79134 17.8436C3.81912 17.5172 3.33301 17.1248 3.33301 16.6665C3.33301 16.3471 3.56217 16.0623 4.02051 15.8123C4.47884 15.5623 5.08301 15.3609 5.83301 15.2082V16.6665H7.49967V1.6665L14.1663 4.9165L9.16634 7.49984V15.0415C10.3608 15.1109 11.3538 15.295 12.1455 15.5936C12.9372 15.8922 13.333 16.2498 13.333 16.6665C13.333 17.1248 12.8469 17.5172 11.8747 17.8436C10.9025 18.17 9.7219 18.3332 8.33301 18.3332Z" fill="white"/>
</g>
</svg>
