<?xml version="1.0" encoding="UTF-8"?>
<svg id="Layer_2" data-name="Layer 2" xmlns="http://www.w3.org/2000/svg" viewBox="0 0 1151 616.27">
  <defs>
    <style>
      .cls-1 {
        fill: #fff;
        stroke-width: 0px;
      }
    </style>
  </defs>
  <g id="_레이어_1" data-name="레이어 1">
    <g>
      <g>
        <path class="cls-1" d="m168.62,52.7c2.11,6.06,1.51,11.21.9,16.35-.6,3.64-1.21,6.66-.6,9.69l-5.14,38.76c-.91,1.51-1.81,3.03-1.81,3.64-1.51,4.24-2.12,8.18-8.46,6.66l-3.32-3.03c.6-19.08,1.81-33.31,3.02-51.18v-1.21c-9.37,13.02-19.94,26.35-32.02,40.89-.3.3-.9.6-1.21.91-2.72,2.73-6.65,6.06-12.09.91l5.74-11.51c1.21-2.73,3.32-6.97,5.13-10.9,3.32-1.51,4.84-4.24,6.34-6.96,1.21-2.12,3.02-4.85,4.53-6.66,13.29-19.38,23.26-34.83,36.55-58.15-3.93,1.51-6.95,3.03-11.48,5.15-8.46,3.63-16.31,6.96-22.05,8.78-3.63,0-9.06-3.63-10.88-7.87,1.21-4.54,4.23-5.75,6.65-6.36,5.44-1.21,10.57-3.94,15.71-6.06,10.27-3.94,20.54-7.87,32.63-14.54,2.42.61,3.63.61,4.84.61,3.93,0,7.25,0,9.06,5.75-6.95,16.05-15.41,30.89-23.57,44.82.3.3.6.3.91.61l.6.91Zm73.11,74.2c-11.78,11.51-24.77,22.41-37.76,33.31-12.69,10.9-17.52,14.84-29.91,26.65,1.51-.6,3.32-1.21,4.53-1.51,9.97-3.03,20.24-6.06,30.21-5.75h1.81c1.21,0,2.42,0,3.63.6,3.02,1.51,6.64,4.85,7.55,8.48-.6,13.02-9.97,22.71-18.73,32.1-1.21,1.21-2.11,2.42-3.32,3.33-15.1,14.23-29.31,25.14-43.5,35.74-3.32,2.42-6.04,4.54-9.07,6.66,8.16-2.12,15.41-3.94,21.75-5.45,12.99-3.63,25.38-6.66,43.5-9.39,1.21-.3,2.42-.91,3.93-1.21,6.34-2.12,12.99-3.64,21.45-3.64,3.63-1.82,8.16-2.42,11.48-2.12,2.42-1.82,5.44-1.51,7.85-1.51,1.21,0,3.32-.3,2.42.3,2.12-.91,6.04-2.12,8.76-1.51,3.63-2.42,7.25-2.42,10.27-2.42,1.81,0,3.62,0,4.23-.61,2.72-.6,3.93-.6,4.84-.6h5.44c.91-.6,2.11-.6,3.93-.3h3.32c1.51.3,3.02.3,3.63.3,1.81.3,3.02.3,6.34-1.51l3.02,4.24.6.3-3.93,3.03c-2.42,1.51-4.84,2.42-6.95,2.42-1.51-.91-5.13,2.73-7.86,2.12-17.22,2.72-36.25,6.96-54.08,10.9-9.37,2.12-18.73,4.54-27.79,6.36-10.57,2.73-19.03,4.85-25.38,6.36-6.95,1.82-14.2,3.33-25.08,6.36-4.23.61-9.37,2.12-13.9,3.03-7.25,1.51-16.31,3.03-25.68,3.03-3.32-2.12-6.65-5.45-7.55-9.39l.6-3.94,44.41-36.34c3.63-3.03,7.55-6.36,11.78-9.39,11.18-8.18,23.87-18.47,29.91-30.59-6.65,1.21-13.9,3.33-21.15,5.45-6.95,2.12-13.29,4.24-21.45,5.45-6.04.91-9.06-3.94-11.18-7.27l-2.42-6.06c14.5-15.75,27.49-27.26,41.09-38.76,8.76-7.57,17.82-14.23,25.07-20.9-18.73,4.54-38.67,10.6-58.61,20.29-.9-1.82-1.81-2.42-2.72-3.33-2.11-2.42-3.93-5.45-5.13-10.3,15.41-7.87,28.1-11.51,41.09-15.44,5.44-1.51,11.78-3.03,16.92-4.85,2.72-.3,6.65-1.21,10.87-2.12,6.34-1.51,13.29-3.03,21.15-2.72,1.51,0,3.02.91,4.53,2.42.6.6,2.42,2.12,3.02,2.73l-1.81,6.96Zm.91-110.24c-1.51,10.3-2.42,20.9-3.93,30.59,19.64-8.78,36.56-16.05,62.24-18.17-.91,4.24.6,7.27-1.81,10.3-21.45,6.96-41.99,15.44-61.63,26.95-.9,5.15-1.81,10.6-2.72,16.66-.91,5.75-1.81,9.69-2.72,15.14-2.42,5.76-8.16,5.15-11.48,3.03-1.81-3.33-2.42-5.45-2.42-9.39,0-3.33.3-6.66.91-9.99,0-.91.3-2.73.3-3.33,1.51-9.39,2.11-16.96,2.72-24.23.6-7.87,1.21-14.54,2.72-23.93,1.21-3.33,1.51-6.36,1.51-9.99,0-3.03,0-6.06.9-9.09,5.14-7.27,14.5,0,15.41,4.54v.91Z"/>
        <path class="cls-1" d="m291.21,137.53c.44-5.05,1.75-11.42,5.69-16.03,3.5.66,7.01,2.41,8.76,6.58-.22,1.32-.66,3.07-1.09,4.39-1.09,4.61-2.85,9.44-3.07,12.73,0,2.42-.44,5.27-1.09,8.12,0,4.61.44,14.05.66,18.44.44,5.27.88,10.76.66,15.81,1.97-1.1,4.16-2.64,6.57-4.17,3.5-2.63,7.23-5.05,10.73-6.15,3.28-2.19,6.35-3.95,9.85-6.15,3.28-1.76,7.44-4.61,10.29-6.58,1.53-.22,2.19-1.54,3.5-1.54,1.75-1.54,3.94-2.41,5.69-2.85,1.09-.22,2.85-1.1,4.82-2.63l2.85-1.54c.22-1.54.22-2.64.44-4.17.22-3.29.44-7.47,1.53-11.2-.66-2.19-.44-3.51.22-5.71.22-1.1.44-2.85.44-3.73.22-2.41.44-5.05.88-7.24.44-3.51,1.09-6.37,1.09-10.54,1.97-5.05,7.44-1.98,9.85-1.1,2.85,2.19,1.97,4.61,1.75,7.02-.22.66-.22,1.54-.22,2.41-1.53,1.98-1.09,3.51-1.31,5.05,0,1.32-.22,3.95-1.09,5.71,0,3.51-.44,6.58-.88,10.32-.44,2.85-.88,6.15-1.09,9.22.44-.22.88-.44,1.31-.88,1.97-1.32,5.04-2.19,7.66-3.07,1.75-.66,3.94-1.54,6.57-2.85,2.19-.44,4.6-.88,6.13-2.19,0,0,2.63-.22,3.07-.22.22,0,.44,0,1.75-1.32,1.53,0,3.5-.44,5.25-.88,1.53-.44,2.85-.88,4.38-.88,1.31-.66,1.75-.66,3.28-.88,1.31,0,2.41-.22,3.72-1.1l2.85,2.41-2.63,5.05c-4.38,2.2-6.13,2.64-8.32,3.07-3.28.88-6.13,1.98-9.85,4.39-2.41,1.1-4.82,2.19-7.01,3.07-6.35,2.85-12.48,4.83-18.61,9-.88,14.27-3.94,36.44-5.91,50.27-.66.44-.66.88-1.09,1.54-.44.66-1.31,1.98-2.19,2.85-3.72,0-3.5-1.1-4.6-2.19-.22-.22-.88-.66-1.75-1.32,0-6.15.44-13.17.88-19.1.22-2.42.44-5.05.66-7.47.44-.88.44-1.54.44-2.41s0-1.98.66-3.95v-2.64c0-1.54,0-3.07.88-5.71.22-2.85.44-5.27.66-7.9v-.44c-1.75.66-3.5,1.32-3.94,3.07-8.98,6.59-18.39,12.07-27.81,17.56-9.63,5.49-19.05,11.2-27.15,17.34-2.85,0-5.04-1.1-6.35-2.19-.44-.22-1.97-.88-3.28-1.54-.88-3.29,0-5.49,1.31-7.46.22-.66.88-1.54.88-1.98,0-1.76.22-3.07.44-4.39.44-2.42.88-5.05,0-7.9,0-2.85-.22-5.93-.44-8.78-.22-4.17-.66-8.78-.66-12.95,0-5.49.44-10.32,1.75-15.15.22-1.32.44-2.64.66-4.39Z"/>
        <path class="cls-1" d="m455.21,128.53c-4.82,24.8-15.76,49.39-27.59,72.44-2.19,4.39-5.47,8.12-8.32,11.85-.22.22-.88,1.1-1.09,1.32l-3.94,1.32-3.72-3.07c1.75-3.95,4.38-9,6.35-13.17,5.47-12.51,12.04-26.34,17.08-38.86,3.5-7.24,5.69-15.8,7.66-23.49-6.57,1.54-12.48,3.95-18.83,7.02-2.41,1.1-6.79,3.07-9.41,4.17-1.09-1.98-1.97-3.51-2.41-3.95-1.53-1.75-3.07-3.07-1.31-6.58,8.1-4.83,14.89-7.25,21.46-9.22,4.82-1.54,8.76-2.2,13.57-4.39,2.85-4.17,7.66-.88,10.07,2.85l.44,1.76Zm30.22,10.32c.22,2.64-.22,5.71-.66,8.34-.44,2.85-.88,2.64-.66,5.49,8.54-3.29,18.17-6.59,26.93-8.78,7.88-1.76,19.27-3.07,31.31-3.07l2.63,3.51.44,1.76c-1.75,2.42-3.28,2.64-5.04,2.85-2.85.44-5.69.44-8.32,1.54l-5.04.66c-.44-.22-.22-.22-3.5.44-.88.22-1.97.22-2.85.22-.66,0-1.31,0-2.41,1.32-12.48,3.73-23.65,8.12-33.72,12.73-.66,0-1.09,0-1.53-.22-.44,3.73-.22,6.8-.22,10.54,0,9.88,0,19.54-6.57,27.88-3.07.66-7.01-2.19-8.54-3.73,3.94-9.22,3.94-18.88,4.16-28.76.22-6.81.22-13.83,1.31-19.54.22-5.71,1.09-11.41,1.75-17.12.44-3.95.88-8.34,1.31-12.51,2.19-6.15,6.35-3.51,9.2-1.76.22.22.66.22.88.44l1.31,2.19-2.19,15.59Z"/>
        <path class="cls-1" d="m624.47,109.87c-.44,7.24-1.09,14.71-1.53,21.29-.66,6.81-1.09,13.61-1.97,21.73-.22,2.85-.44,6.37-.66,9.22-.88,15.15-1.97,31.61-6.57,46.1-1.75,1.1-1.97,1.32-4.82,2.64l-3.28-3.07c.22-9.22.88-20.64,1.75-30.95.44-6.81,1.09-14.05,1.53-21.07-9.85,5.05-21.46,10.54-31.31,14.93-2.63.66-5.91,2.85-8.76,4.61-2.63,1.76-6.35,3.73-10.07,4.61-1.97,1.1-5.91,3.51-8.76,5.27-1.53.66-3.72,1.98-5.47,2.85-3.28.66-7.44-2.41-9.41-6.15,1.31-3.51,1.75-7.9,2.19-12.73.44-4.39.88-9,2.19-13.17.44-4.39,1.09-8.56,1.75-13.39.88-4.61,1.31-9.88,1.97-16.68,2.85-2.19,4.6-1.54,6.35-.88,0,.22.44.22,1.53.22,2.85,1.54,3.72,5.05,3.07,8.56-2.19,15.58-3.94,26.56-5.25,39.29l8.1-4.17c10.29-5.27,21.67-10.54,32.18-13.39,5.47-3.51,12.48-7.02,19.27-7.9.66-.22,1.75-.88,1.75-1.32.22-4.83.66-10.32,1.09-15.15.66-7.46,1.31-15.15,1.09-22.83,2.63-3.73,4.16-2.64,5.69-2.42.66.22,1.09.22,2.63-.44l3.72,4.39Z"/>
        <path class="cls-1" d="m705.93,125.89c-4.16,25.46-10.29,51.37-21.02,74.42-1.53,1.1-4.6,2.42-8.1.44,0-3.29.66-5.93,1.75-8.78.44-2.19,1.31-3.73,1.31-6.37,1.53-6.59,2.19-7.9,2.85-9,.22-.44.44-1.1.22-1.32,3.28-12.73,7.01-27.44,8.1-33.37.22-1.54.66-5.05,1.09-6.15-1.09.44-1.53,1.1-2.41,1.76-.88.44-3.28,1.75-2.85,1.75-1.31.66-2.63,1.54-3.94,2.2-3.07,1.75-7.23,3.51-9.85,7.24-3.5.88-5.47-1.1-7.01-3.29-.22-.22-.66-.66-.88-1.1-.66,1.76-1.09,3.51-1.53,5.05-2.19,7.03-4.6,15.15-7.23,22.17h.22c-1.31,5.27-2.19,10.32-3.07,14.93-.66,3.73-1.53,8.12-2.41,11.64-1.09,1.32-1.53,1.54-2.19,1.32-4.6-.22-7.01-2.41-6.35-7.9,0-.44-.22-2.41-.22-2.85.88-1.1.66-2.2.44-3.07v.22c-.66-1.76-.88-3.73.44-5.71,0,0,3.07-13.83,3.5-15.37l3.07-9c.88-7.02,4.38-16.47,4.6-17.34.22-1.76,1.09-3.29,1.97-5.27s1.97-3.95,1.97-6.58c.22-2.19,1.31-4.61,2.63-6.81.22-2.41,3.5-8.12,3.5-9.44,0-.22.22-.66.22-1.1-4.6,1.32-8.98,3.08-13.57,5.05-1.75,2.85-4.38,3.51-6.79,3.73-.44,0-1.75.22-2.19.22-3.72-1.98-5.04-6.15-5.04-9.66,11.6-5.93,24.3-10.54,37.66-13.61,0,.22.88.66,1.31,1.1,1.97.88,4.16,1.98,5.25,4.39v1.75c-6.13,11.42-10.51,23.93-14.45,36.44,1.09-1.1,2.41-1.76,3.5-2.64,1.31-1.1,3.72-3.29,9.85-5.71,5.91-2.85,11.82-5.92,18.17-10.32,2.63.66,6.79,1.54,7.44,5.05v.88Zm44.88-29.41c-3.5,12.73-5.25,25.9-7.44,38.85-.66,3.51-.66,5.05-1.31,8.34,1.75-.44,3.28-1.32,4.82-1.98,2.19-.88,4.82-1.98,7.23-2.64,6.13-2.85,10.51-3.73,15.55-5.05,3.07-.66,5.25-1.54,9.2-2.41,1.09.44,2.41,0,3.94-.22,2.19-.44,4.16-1.32,6.35,0,.88-.22,1.97-.22,3.07,0,1.09.22,2.41.44,4.38-.44l6.13,3.73-6.57,3.95c-1.97.66-6.13,1.54-9.85,2.19-4.16.88-8.1,1.54-12.7,2.85-15.11,4.17-21.46,7.02-32.62,13.17-1.31,2.41-1.31,5.49-1.75,8.56-.22,1.1-.22,2.2-.44,3.29-1.09,11.41-2.19,25.03-3.28,36.22-3.07,0-3.5.44-4.16.88-.66.44-1.31.66-3.5.66-.66-1.32-1.09-1.54-1.31-1.54-1.09-.22-2.19-.66-2.85-3.07,1.97-13.83,3.28-27.66,3.72-41.27-.22-.22-.44-.88-.66-1.1-1.09-1.76-1.75-3.95-1.31-6.37l3.5-3.07c.22-2.85.88-6.15,1.31-8.78,1.31-7.46,2.63-14.27,4.16-21.29.88-5.49,1.97-10.54,3.07-15.58,1.09-3.51,2.19-6.15,2.41-9.88,1.75-5.71,8.54-2.85,10.51.22l.44,1.76Z"/>
      </g>
      <g>
        <path class="cls-1" d="m927.99,191.45c-2.37-1.43-7.35,3.8-8.53,1.9-6.88,3.09-9.01,3.09-10.43,2.85-3.56,1.9-4.74.95-6.17.95l-4.27.48c-3.08.47-6.4,1.19-10.2,2.14l-3.08.71-7.59.95c-.95.48-2.14.95-2.85,1.43h-1.9l-10.67,2.61c-13.99,2.61-14.23,1.9-16.6,2.85,0,0-2.13.71-3.32,1.19-2.14.95-4.27,1.66-7.59,1.66-.23-.24-.95-1.43-1.18-1.66-2.85-3.09-3.56-3.8-2.37-8.32,2.13-3.09,4.26-3.09,6.16-3.09s6.64-1.66,9.96-2.37c4.74-1.43,9.72-2.85,15.41-3.09,9.72-2.14,21.1-4.04,30.83-5.46,5.69-.71,11.15-1.43,15.89-2.38h.95c-.24,0-4.98.71,26.79-3.09l-9.25,9.74Zm-30.35-84.11c-.47,1.66-.47,3.33-.47,4.75,0,3.09-.23,6.18-1.18,9.27,0,.47-.23.71-.71,1.19,0,.95-.47,2.38-.95,3.8,0,.71-.47,3.56-.47,2.61-.24.95-.71,1.9-.95,2.61,0,1.19-.24,2.38-.95,4.99-1.19,2.85-.95,3.56-1.19,4.27-.47,1.66-1.42,3.8-1.9,4.99-.71,1.66-1.42,3.09-1.42,4.51-.47,2.85-.47,3.33-.47,3.8,0,1.66-.24,4.04-1.66,5.94-.95,3.56-2.37,7.84-3.8,11.64l-1.89,5.7c-.47,1.19-1.42,2.14-2.37,2.85-.47.24-.95.48-1.9,1.43h-6.64c0-8.31,1.42-13.54,3.09-19.24,1.18-4.28,2.13-8.32,2.84-12.59,1.66-6.89,3.8-14.73,6.88-23.52,0-1.9.47-5.7.95-7.84.71-2.61,1.42-1.66.95-3.09l-5.21.47c-1.66.47-3.8.71-5.22.71-2.85.71-7.12,1.67-11.38,2.14-5.22.71-10.67,1.43-13.99,2.85-5.69-1.19-5.69-3.09-5.69-6.41v-1.43c-1.19-5.47,3.56-5.7,6.4-5.23,4.5-1.9,10.91-2.14,17.07-2.85,6.64-.71,13.75-1.43,17.78-3.09,2.13,0,4.27-.95,6.16-2.37,3.8-.48,5.46,2.14,6.64,3.56.23.47.47.71.95,1.19l.71,2.37Z"/>
        <path class="cls-1" d="m942.45,86.43c1.19,8.79-1.42,25.42-3.56,39.2-.95,7.6-1.9,11.41-2.13,15.68,1.66-.71,3.32-1.19,5.21-1.9,2.61-.71,5.45-1.9,7.82-2.61,4.5-1.19,8.06-2.61,11.15-4.04,1.9-.95,4.03-1.66,6.17-2.37l7.35-2.85c5.21-2.85,18.49-5.47,18.97-7.6l4.98-.95,8.77.24.47,5.47-8.3,3.56c-1.66.71-3.56,1.43-4.98,2.14-3.08,2.37-4.98,3.56-8.06,4.51-1.42.47-3.09.95-4.74,1.66-8.3,3.33-14.7,5.94-19.21,7.6-6.4,2.61-9.49,3.8-14.47,6.41-1.42.71-3.56,1.9-5.21,2.61-2.14.95-4.27,2.14-6.17,4.04-1.66.24-2.85.47-2.61.47-2.37.95-4.74,1.67-7.12-1.19l-.23-.71-.71-3.09c-.23-.71-.71-1.43-1.9-2.14,0-10.45,2.14-22.57,4.03-34.69,2.13-12.12,4.26-24.47,4.26-33.5,3.56-4.75,4.51-3.33,6.17-1.19l.23-.24,3.8,5.47Zm57.38,95.28c.71,4.28,1.42,9.74,1.42,15.21,0,3.57-.23,7.13-.95,9.98.47,1.9-.23,3.56-.95,4.99-.47.71-.71,1.43-.71,1.9-2.61,7.37-7.82,16.87-17.78,17.35-5.69-1.19-12.33-4.51-13.04-11.17-1.18-4.99-1.66-10.93-1.66-15.92,0-13.07,2.37-24.47,5.69-35.64,1.9-2.61,4.5-2.61,6.88-2.38.95,0,2.37-.24,2.37-.24,4.27,3.56,3.56,5.23,2.61,7.6-.23.47-.47.71-.71,1.43l-.95,4.04c-1.66,4.04-1.9,7.37-2.37,10.93-.23,2.37,0,6.18-.95,9.98v4.28c-.23,4.51-.23,9.27.95,13.31.71.71.95,1.43,1.66,2.14,5.93-6.41,7.11-14.73,7.11-23.28,0-4.51,0-9.5-.47-14.02-.47-4.75-.95-8.08-1.42-14.5,1.66-.47,4.27-3.33,5.45-5.47.95,1.19,7.35,17.58,7.82,19.48Zm30.35-112.15v1.42l-.95,5.23c0,.95,0,1.66-.23,2.61,1.42-1.43,2.61-2.14,4.03-2.85l10.91-3.57c5.22-1.43,9.72-2.14,14.71-3.09l5.21-1.43,7.82-.47c3.32,1.9,4.74,5.47,5.22,9.27-3.32.71-4.5.71-5.69.71-2.61.24-4.74.24-6.88,1.66-2.61.71-4.74,1.43-6.64,1.9-8.3,2.14-19.92,7.6-23.47,7.6-1.42.47-2.85.47-4.51-1.9-.47-.71-.95-1.19-1.42-1.66-.24,2.61-.71,5.23-1.19,7.6-.71,3.8-1.18,7.84-1.66,11.17-.95,4.04-1.42,7.6-1.66,11.41-.23,2.85-.71,7.36-1.18,9.98,0,1.9-.24,3.56-.47,5.23-.24,1.19-.24.24-.24,1.9l34.39-10.45c1.18-.95,2.61-.95,4.5-.71,3.56-.71,5.22-1.19,6.64-1.66,2.85-.71,6.17-1.66,9.72-.95l3.56,3.8c-.95,1.9-2.14,3.8-3.56,3.8-6.16,2.85-9.72,3.8-11.85,4.28l-18.73,6.18c-6.17,1.19-7.35,2.14-8.77,2.61-.71.48-2.13.95-6.17,1.9l-11.38,3.8c-.23,3.09-.47,4.99-2.13,6.65.23,3.09-.95,6.18-4.98,8.79-1.18-1.19-1.42-1.19-1.42-1.19-.95,0-1.9,0-4.51-2.85.71-1.43,1.42-17.35,1.66-20.2v.24c.95-6.89,1.9-13.54,2.61-24.24,0-1.42-.23-1.66.24-3.56.71-4.28,1.18-9.27,1.89-13.78,1.66-10.69,3.56-23.05,5.46-33.98,7.35-4.75,10.43,2.37,11.61,6.89l-.47,1.9Z"/>
      </g>
      <g>
        <path class="cls-1" d="m144.44,432.39c.57,0,1.41.28,1.98.28,3.11.57,6.21,1.13,12.14.57,0,0,1.98,3.96,1.98,5.94-3.67,4.81-9.03,5.66-14.12,6.22-3.1.28-5.93.57-8.19,1.41-11.86,2.27-23.43,4.81-35.29,7.07-25.13,5.09-51.1,9.9-75.66,17.26,1.13,2.55.85,4.81-3.95,6.51l-9.03,1.13c-3.39.85-9.6,1.14-13.27-5.66.28-.56,0-1.13,0-1.69-1.13-1.98-1.98-3.96,1.13-7.07,10.44-5.09,20.33-7.64,29.64-10.47,5.36-1.7,11.29-3.39,16.38-5.09,4.23-.28,11.86-1.98,17.78-3.39,5.93-1.69,13.27-3.11,20.89-3.68,1.69-.85,3.39-.85,5.08-.85,1.13,0,2.26,0,3.67-1.41,5.65-.85,11.86-1.7,16.94-2.55,9.32-1.41,18.63-2.83,27.67-3.96l4.24-.56Zm-29.93,50.92c-1.41,5.37-4.8,8.49-7.91,11.88-1.13,1.13-1.98,1.98-3.67,4.52-12.42,10.47-27.38,20.09-41.5,29.7-8.75,5.66-12.14,7.36-21.46,14.14,3.95-.56,8.19-1.69,11.86-3.11,3.95-1.13,8.47-2.83,11.57-3.39,10.73-4.24,24-6.51,33.88-8.21,3.1,0,7.62.85,10.16,3.68,1.41,5.09-.57,7.36-2.26,9.9-.28.29-.57.85-.85,1.13-27.1,26.31-48.84,40.45-77.08,56.86h1.69c4.8,0,8.75-.57,14.12-1.42,2.54-.28,5.08-.84,8.75-1.41,3.95-.85,9.03-1.41,12.99-1.98,8.75-1.41,16.66-2.83,24-4.24l25.97-3.11c.28,0,1.13-.28,1.41-.28,3.95-.57,8.75-1.41,10.44-1.7,7.91,0,11.01-.84,17.22-1.69,4.8-.57,10.17-1.42,16.09-1.7l1.98.57,2.26-.57,2.82,1.7,6.21,4.24c-11.58,7.07-7.06,3.39-8.75,3.68-1.69,0-3.39.29-4.52.85-1.69,1.13-3.1,1.7-4.52,1.7-.56,0-.85-.29-1.41-.29-.28,0-.57.29-1.13.85-7.34.28-9.88,1.41-14.96,2.55-3.67.84-7.62,1.41-11.86,1.98-8.75,1.7-11.86,1.98-15.53,2.55-2.54.28-5.65.85-12.42,1.98-1.98-.29-3.39,0-4.24.28-1.69.56-3.39.85-5.08.85-1.98.56-3.95,1.13-6.77,1.41-2.82.57-7.34.85-9.6,2.54-3.95-.28-33.03,4.81-33.6,5.38-3.67,0-6.77.28-9.88.56-2.82.28-5.36.57-8.47.57-7.62,0-14.4-1.98-19.2-9.9-1.98-8.49,3.67-11.03,9.32-13.86,1.69-1.13,3.95-1.98,5.36-3.39,23.43-11.32,39.24-23.48,58.72-39.32l-16.37,4.52h.28c-7.06,2.83-14.12,4.81-21.17,4.81-3.67,0-8.19-.85-12.99-2.54-4.52-3.4-6.77-10.75-5.93-15.84,10.73-9.62,22.59-17.26,35.01-24.9,8.75-5.37,17.22-10.75,27.1-18.39,1.41-1.7,3.11-2.83,4.52-3.68-15.24,3.96-31.05,8.2-44.61,17.26-3.95,0-5.36-1.98-6.49-4.24-.57-.85-1.13-1.7-2.26-2.55-1.41-7.07,3.11-9.05,7.06-11.03,3.67-1.41,9.88-5.66,13.55-5.94,17.22-5.94,35.01-11.88,53.92-11.31,2.26.85,6.49,2.54,7.91,5.66l.28,1.7Zm-23.43-124.76c-1.69,7.64-7.06,16.41-11.29,22.63-16.09,23.76-36.7,42.72-58.44,59.69l-3.39,2.26-7.34,3.39-4.52-.56v-5.09c.85-2.55,1.69-3.68,3.67-4.81,1.98-3.68,3.95-5.37,7.34-8.49,2.54-2.26,5.36-4.52,7.06-7.07l10.44-11.04c1.98-.56,3.67-2.54,5.08-4.24.85-.84,2.26-2.26,3.39-3.11,10.16-8.77,20.04-21.78,28.51-34.23-15.53,3.96-31.62,8.49-45.17,13.01-3.1,0-6.21-2.83-7.06-6.22.28-1.98,0-1.7,0-1.7-1.41-2.55-2.26-4.24,2.54-7.07l15.25-3.11c.28,0,.57,0,.85-.28,4.24-1.98,9.32-4.24,13.55-5.09,3.11-.57,7.34-1.98,11.29-3.11,4.23-1.41,7.9-3.11,15.25-3.96,5.93-3.4,9.6,1.98,12.42,5.94l.57,2.26Zm46.58,27.16c2.26.57,5.08.57,6.49,4.81-1.41,6.79-6.49,6.79-11.58,7.64-2.26.28-3.67.56-5.65,1.41-10.45,1.41-20.33,3.11-31.06,5.66-1.69,0-5.36,1.13-8.47,1.98-5.08,1.42-8.75,2.83-16.37,2.83-2.82-3.68-3.95-5.94-2.82-10.47,4.8-3.96,8.47-5.09,12.99-5.94.85-.29,2.54-.29,3.39-.57,4.23-.57,8.19-1.13,11.58-2.26,4.23-1.13,9.03-2.55,14.11-2.83,1.69-.28,4.52-.57,6.21-.85,1.69-.28,1.69,0,5.36-.85l15.81-.57Z"/>
        <path class="cls-1" d="m228.71,402.62c0,4.27-1.6,7.74-2.66,11.21-.8,1.61-1.6,3.47-2.13,4.81-9.86,26.96-26.1,53.12-42.09,77.68-1.07.54-1.33,1.07-2.13,1.87-1.87,1.87-3.46,3.47-9.32,3.47,0-7.74,2.93-12.54,5.59-16.55,4.26-8.28,8.79-17.89,13.59-26.16,8.79-14.95,17.31-29.63,22.11-45.11-7.72.8-19.98,4-25.04,6.67-4.26,4-7.19,2.4-10.92-1.33-1.33-2.4-3.46-5.07-.27-8.54,8.25-4,19.71-7.21,29.03-9.88,5.33-1.6,11.45-2.93,15.18-4.27,0,0,2.13.8,2.93.8,2.4.8,4.53,1.33,5.86,4.27l.27,1.07Zm40.75-12.81c.27,4-.27,7.48-.8,10.68-.53,2.67-1.06,5.34-.8,8.01-.27.8-.27,1.87-.27,3.21,0,3.2-1.33,5.07-1.33,7.2,0,1.33,0,2.4-.53,3.74-.27,5.6-.8,12.55-1.6,18.68-.8,7.48-1.86,15.22-2.4,22.69-.27.27-.53,1.06-.53,1.06,0,2.4-.27,5.34-.27,8.01-.27,10.95-.27,22.43-4.79,32.3-1.07,1.33-2.13,1.6-2.66,1.87-1.07,1.07-3.2,2.14-7.46,2.14,1.07-38.7,4.8-82.48,9.32-115.58-.27-.27-.53-1.33-.53-1.6-.53-1.07-1.07-2.94-1.33-3.47,1.6-1.34,3.46-3.2,5.59-4.27,3.73,0,7.72,1.33,9.85,4l.53,1.33Z"/>
        <path class="cls-1" d="m338.98,402.62c0,4.27-1.6,7.74-2.66,11.21-.8,1.61-1.6,3.47-2.13,4.81-9.86,26.96-26.1,53.12-42.09,77.68-1.07.54-1.33,1.07-2.13,1.87-1.87,1.87-3.46,3.47-9.32,3.47,0-7.74,2.93-12.54,5.59-16.55,4.26-8.28,8.79-17.89,13.59-26.16,8.79-14.95,17.31-29.63,22.11-45.11-7.72.8-19.98,4-25.04,6.67-4.26,4-7.19,2.4-10.92-1.33-1.33-2.4-3.46-5.07-.27-8.54,8.26-4,19.71-7.21,29.03-9.88,5.33-1.6,11.45-2.93,15.18-4.27,0,0,2.13.8,2.93.8,2.4.8,4.53,1.33,5.86,4.27l.27,1.07Zm40.75-12.81c.27,4-.27,7.48-.8,10.68-.53,2.67-1.06,5.34-.8,8.01-.27.8-.27,1.87-.27,3.21,0,3.2-1.33,5.07-1.33,7.2,0,1.33,0,2.4-.53,3.74-.27,5.6-.8,12.55-1.6,18.68-.8,7.48-1.86,15.22-2.4,22.69-.27.27-.53,1.06-.53,1.06,0,2.4-.27,5.34-.27,8.01-.27,10.95-.27,22.43-4.8,32.3-1.06,1.33-2.13,1.6-2.66,1.87-1.07,1.07-3.2,2.14-7.46,2.14,1.07-38.7,4.8-82.48,9.32-115.58-.27-.27-.53-1.33-.53-1.6-.53-1.07-1.07-2.94-1.33-3.47,1.6-1.34,3.46-3.2,5.59-4.27,3.73,0,7.72,1.33,9.86,4l.53,1.33Z"/>
        <path class="cls-1" d="m449.24,390.34c1.86,6.14.8,13.08-.53,19.76-.27,1.33-.53,4-.8,6.94-1.06,3.74-1.86,6.94-2.66,10.94-1.6,7.21-1.86,11.21-3.99,18.15,3.73-.8,6.92-2.14,10.12-3.47,5.06-1.87,8.79-3.47,11.72-4,1.6-1.07,3.46-1.6,5.06-1.87.53,0,1.33,0,3.46-1.07l3.73,6.67c-6.66,5.34-11.19,6.94-16.78,8.81-3.2,1.07-7.19,2.67-11.99,5.34-4.79.53-9.06,3.47-13.32,5.87-.8.54-2.13,1.33-2.93,1.87-5.33,0-9.59,2.93-14.38,5.6-3.73,2.14-7.19,4.27-10.92,5.07-.8.27-1.6,1.07-2.66,2.13-3.2,2.4-6.66,5.61-11.98,4.54-3.2-2.14-4.53-4.81-4.8-6.94-.53-5.07,6.39-8.01,13.05-10.68,3.2-1.07,6.92-2.94,8.79-4-.8-2.14-1.07-3.74.27-5.34,0-8.54.8-16.55,1.6-24.55.53-8.01,1.33-15.75,1.33-23.22,0-4.81-.27-9.87-1.07-16.01,2.93-2.13,6.93-2.67,9.59-1.87,2.13,0,2.4.8,3.46,2.4,0,.54.27,1.07,1.33,2.14-.27,1.6-.53,2.67-.27,3.47,5.06-2.4,10.66-5.34,15.45-10.41,1.6.53,2.4.53,3.2.53,2.13,0,4.8.53,6.39,2.13l.53,1.07Zm-13.32,16.28c-1.33.8-2.4,1.07-3.46,1.87-2.4,1.61-5.86,3.47-8.79,4-.53,13.88-1.07,25.09-2.4,39.78l5.33-1.61c.8-2.13,1.07-5.07,1.87-8.01.8-3.74,1.6-7.47,3.46-11.75.53-4.54,1.33-9.08,2.13-13.35.8-4,1.33-7.74,1.87-10.94Zm13.05,80.08c-.27,10.41-1.86,18.42-4,27.23-1.6,6.94-2.93,13.35-3.73,19.22,8.25-1.87,17.05-4.54,25.84-7.2,9.32-2.4,18.38-5.07,28.5-7.21,1.86-2.13,3.73-1.87,5.33-1.87.53,0,1.06.27,1.86-.54,2.4-.27,5.06-1.6,7.19-2.13,3.46-1.07,6.39-1.87,10.39-1.6,3.46-1.07,6.66-1.61,9.59-2.14,1.6-.27,6.66-1.07,8.26-1.33,0,4.81-1.6,6.41-3.2,8.01-2.13,1.33-3.46,3.2-6.13,3.2l-2.66,1.07c-11.98,4-23.97,7.74-35.96,11.21-18.64,5.34-39.16,11.21-55.14,18.15-4.53-.8-9.06-3.74-11.19-7.48,1.07-4.54,2.4-9.88,3.2-14.41,1.33-6.67,3.2-14.15,6.13-22.69,0-3.21.53-7.48,1.07-10.41.8-4.27,1.06-6.94.8-12.01,3.2-2.67,9.06-4.54,12.52-.27l1.33,3.21Zm59.66-97.16c-3.73,11.21-3.73,20.82-4,31.23,0,4.54,0,5.87-.27,10.68,4-.8,7.72-2.67,10.92-4.81,1.6.27,2.66-.27,3.73-.8.8-.27,2.93-1.34,3.73-1.61,3.46-1.07,6.13-2.4,9.59-3.47,7.72-2.94,15.45-5.88,22.37-7.74.53,0,1.6-.54,1.87-.8,4-2.4,8.26-2.93,11.45-3.2.8,0,2.13-.27,2.93-.27,2.4,1.34,3.2,2.67,3.2,3.74,0,3.74-4.26,6.94-10.39,9.08-2.4.8-5.59,2.4-8.52,4.54l-3.46.8c-17.05,6.14-34.36,11.75-50.07,21.36-.8,2.93-.8,5.07-.8,7.47-.27,2.14-1.07,6.14-1.07,6.14-2.66,2.67-3.2,1.87-5.06,1.87h-2.13c-4-2.13-7.19-5.34-5.86-10.41l-.27-.27c-.8-1.07-1.33-2.67-1.33-4-.53-3.47,1.07-6.67,3.2-9.08.53-.53.53-.27,1.07-1.07.8-8.01,1.6-16.81,2.13-25.36.8-9.34,1.33-19.22,2.13-27.76,3.2-4.27,6.13-3.74,8.52-2.4h-.27c.27.27.8.27,2.93.27l3.73,5.87Z"/>
      </g>
      <g>
        <path class="cls-1" d="m690.6,403.49c-5.25,2.63-6.34,2.85-9.19,3.95-3.07.88-7.44,1.98-8.32,2.41h.22c-4.59,2.85-9.85,4.38-14.45,5.7-3.28,1.09-7.22,2.41-10.29,3.51-7.44,1.54-17.07,5.05-24.51,8.34-3.28,1.09-3.72,1.31-4.6,1.76-2.19.88-5.69,2.41-8.75,3.07-.88-.66-1.53-1.54-2.19-1.98-2.63-1.98-5.69-4.39-2.85-8.55,12.04-5.7,25.17-9.65,37.64-12.94l-1.53-.88c0-2.85-.22-5.05-.44-7.02-.22-2.85-.88-5.48-.44-9,1.75-13.6,4.15-30.05,7.44-43.21,0-1.75.66-4.17,1.97-5.48,2.63-1.32,7.22-.88,9.63,1.97l.22,1.32c0,2.19-.22,4.61-1.09,6.58-.88,3.73-1.53,8.34-2.4,12.28-2.63,12.06-5.47,24.79-6.35,38.17,0,1.32-.22,2.41-.88,3.73,5.47-1.54,10.94-3.07,16.42-4.83,2.41-.22,3.28-.88,4.38-1.53-.22.44,2.18-.88,7.66-2.41.66.22.88,0,1.31-.22.66-.22,2.41-.66,2.85-.66,1.09.22,1.75-.22,3.5-.44,5.25-.88,10.07-1.31,5.91,5.48l-.88.88Zm-40.05,37.51c2.41.88,5.47,1.53,5.69,4.6.87,6.58,1.31,13.6,1.31,20.4,0,12.94-1.97,25.66-9.63,36.63-1.97,2.63-4.6,3.29-7.66,3.51-.44,0-1.09.22-1.53.22-1.53,0-3.72-1.31-5.25-1.98-.88-.44-1.75-1.09-2.63-1.53-2.4-5.27-3.06-9.65-3.06-13.82,0-6.36,1.31-12.51,2.62-18.43.44-1.75.44-2.85.88-4.6.66-1.76,1.75-4.39,2.41-6.37,1.09-3.95,1.97-7.89,5.04-11.84,3.07-.44,5.25,0,7.66,1.54,0-.22-.22-.44-.22-.66,0-.66,0-1.54-.22-2.41-.44-2.41-1.75-3.51,2.19-6.37l2.41,1.1Zm-3.5,15.57l-1.09,2.63c-3.07,7.02-5.91,15.14-6.56,25.66v2.19c0,2.63-.22,4.83.44,7.24,1.31-1.98,1.97-4.17,2.63-6.14.21-.88.43-2.19,1.53-4.17,1.97-9.65,2.63-18.42,3.07-27.42Zm56.03-38.6c-1.09,7.24-1.75,13.82-2.19,20.62-.44,4.17-.44,8.99-1.09,13.38,10.29-2.85,22.77-6.37,34.15-7.9,1.09.22,1.53,0,2.19-.22,1.75-.44,3.5-1.1,7,0l1.53,2.19-7.88,5.7c-1.53.44-2.85.88-4.38,2.19-3.72,1.1-7.88,1.98-11.38,2.85-7.44,1.98-15.76,4.17-22.33,8.12-1.53,7.68-2.4,16.23-3.28,23.91-.22,2.85-.66,6.14-.88,8.99-.66.66-.44,1.09-.44,1.54,0,2.19.44,3.95-3.28,5.7-1.53.22-2.85-.22-4.6-1.1-1.09-.22-1.53-.88-2.4-1.75-.88-7.24,0-15.36.88-23.47.43-.66.43-1.09.43-1.53,0-.66.22-2.41.22-2.41l-.22.22c1.97-12.73,3.07-24.79,4.16-37.51.66-7.24,1.09-14.48,1.97-21.72,1.31-4.17,6.13-3.51,8.31-1.98q.44.66.66.66c1.09.44,2.41.88,2.85,2.41v1.1Z"/>
        <path class="cls-1" d="m779.7,405.25c-.66.66-1.31,1.32-1.31,1.98-3.28,11.19-3.94,22.37-4.6,33.34-.22,5.48-.22,8.12-.88,13.38q1.09,0,5.69,1.54c-3.28,3.29-5.25,5.05-7.01,5.92-1.09.88-3.07,2.41-3.94,2.41l-18.6,6.58c-1.97.88-4.6,1.98-6.57,3.73-4.37,0-6.78-2.19-8.31-4.17-1.09-3.29.22-4.6,1.75-6.14,4.15-1.54,8.1-3.07,11.82-3.95-.44-7.02-.66-13.6-1.09-20.4.88-4.17.66-6.8.66-9.87,0-1.98,0-4.39.22-7.02.22-1.97.22-3.51.22-5.48.22-6.36.44-12.72,1.75-16.67,2.63-5.48,5.91-3.51,9.41-1.75l.66,1.09c1.75-.66,3.94-1.53,6.13-2.19,2.4-.66,5.25-1.75,7.88-3.95,2.63-.44,4.38.44,5.91,1.76.44.44.88.44,1.97,1.31,2.63,3.73.22,6.14-1.75,8.55Zm-17.51,50.01c-.22-13.6.88-30.93,2.85-45.19-1.75.88-3.5,1.98-5.25,3.07-1.09,14.26-1.53,28.73-1.53,43.43,1.53-.44,2.85-.88,3.94-1.31Zm39.18,14.26c-.22,2.85-1.09,4.83-1.97,7.24-.66,1.53-.88,3.07-1.31,4.6-.22,3.51-1.09,6.14-1.97,9.87-.66,3.07-1.53,5.92-1.97,9.21,0,2.19-.66,4.61-1.09,6.36,9.41.22,18.38-1.75,26.92-3.51,4.15-.88,8.1-1.98,12.47-2.63,1.53-.44,3.5-1.09,5.25-1.09,15.76-2.85,28.23-4.83,47.06-6.8-2.41,5.48-4.6,6.14-6.34,6.8-.44.44-1.31.88-1.75,1.31-1.31.44-2.63.88-4.38,1.76-4.6,1.75-8.97,2.19-13.35,3.51-14.88,3.51-28.67,5.92-42.46,8.77-7.44,1.54-15.54,3.51-23.64,3.73-2.19.88-5.91,1.76-8.1.88-3.07-.22-5.25-3.51-6.56-5.92,2.41-5.27,3.28-9.65,4.37-14.48.44-2.19.88-4.39,1.31-6.15.44-2.19.66-3.73.88-5.27,1.31-6.8,1.97-12.28,5.47-20.84,3.28-3.95,8.31-1.98,10.72,1.09l.44,1.54Zm17.73-65.15c1.53,2.63.66,4.83-1.53,7.02-4.16,2.63-8.75,4.17-13.13,5.48-5.47,1.76-10.29,3.07-16.2,7.24-2.41-.66-5.69-1.1-8.1-4.39-.66-4.82,2.84-6.8,5.69-8.12,5.25-2.41,7.44-3.29,8.98-3.73,7.44-2.63,13.57-4.83,21.45-5.92l2.85,2.41Zm20.13,18.2c2.41,1.76,1.97,3.07,1.97,5.05,0,3.51-1.31,2.85-3.28,4.83l-1.31,1.31c-.22,1.32-.22,3.07-.44,4.39,0,1.31-.22,2.85-.66,3.95-.88,4.39-1.75,7.68-2.41,11.63-.88,4.17-1.53,8.12-2.41,12.51-1.53,3.07-2.63,2.41-4.16,2.41-1.31,0-3.07,0-5.25-5.27.44-8.34,1.09-16.23,3.28-23.91-9.41,3.51-19.26,8.12-28.02,13.38-1.09,0-2.4,1.09-3.5,1.76-3.5,2.19-7.88,3.73-11.17-.88-1.53-1.53-2.18-2.63-1.09-5.92,4.37-2.63,8.97-4.38,13.13-6.58,2.18-.88,4.37-1.98,6.78-3.07,7.23-3.51,16.85-7.9,25.61-10.75,1.97-7.02,2.41-17.77,2.85-24.79,0-.66.22-1.98.22-2.41,1.53-3.95,5.69-4.82,7.88-2.63l4.15,4.17-2.19,20.84Z"/>
        <path class="cls-1" d="m1000.12,351.27c-3.22,3.82-7.62,4.7-11.72,5.58-2.05.29-3.51.59-4.1.88-19.63,7.05-36.33,13.8-55.67,22.02l-9.09,4.7c-1.46,0-2.63,0-5.27,1.47-4.69-3.23-9.09-7.05-5.86-13.5,16.99-7.93,33.11-13.8,46.29-17.91,8.5-3.23,9.96-3.52,11.43-3.82,2.64-.59,5.57-.88,6.74-2.05,5.57-2.35,9.96-3.23,14.65-3.82-.3,0,.58-.29,1.46-.88,3.81-1.18,10.25-3.52,11.72,4.99l-.59,2.35Zm84.09,31.12c0,9.69-.59,19.37-2.05,27.6,1.76,1.76.29,3.52-1.17,4.99-1.76,12.33-2.34,25.54-2.93,38.75-.58,14.39-1.17,28.77-2.93,40.51-2.05,2.35-4.69,2.64-6.15,1.18-2.64-2.35-3.22-5.58-3.22-8.51,0-1.47-.59-2.64-1.46-4.7l-.29-6.17c-.3-4.11-.3-7.92-.3-12.33,0-10.86.88-23.48,1.76-34.05,0-1.18,0-1.76.29-3.82-3.52,1.17-7.32,2.35-10.84,3.52-9.08,3.52-18.46,6.76-25.78,13.8-1.76,11.75-2.93,25.25-4.1,37.87,0,1.47-.3,3.82-.3,5.29-2.93,4.41-3.81,2.64-6.44,2.64-7.32-7.05-6.45-14.09-5.57-22.31,0-.88,0-2.05.29-2.93-9.96,4.99-19.04,8.22-28.42,10.28-17.58,5.29-34.28,10.28-51.57,16.73-2.64-.88-7.03-2.35-7.91-6.17-1.46-.88-1.46-2.35-.88-4.11-.3-.59-.88-2.05-.88-2.05,2.05-1.47,4.39-3.23,6.45-4.11,1.17-.58,3.22-1.76,4.69-3.52,2.05-2.35,3.51-7.04,4.69-11.74.88-3.23,2.05-6.46,3.81-9.69,2.34-4.11,4.69-8.22,7.32-12.04,3.51-5.29,4.1-5.58,6.74-10.57-8.2,1.76-16.7,5.58-24.02,9.69-3.22-.88-7.62-2.64-9.38-6.75-1.17-4.99,1.17-10.86,3.22-15.27.59-1.76,2.35-5.28,2.64-7.04,2.35-5.29,2.93-9.98,3.81-15.85.58-3.52,1.46-7.63,2.35-11.45,4.98-1.18,10.55.59,12.59,5.87.59,9.98-2.93,20.26-6.15,29.94l21.1-7.34c11.43-4.4,21.09-8.22,36.04-8.51l2.05,2.64c-7.91,11.74-12.3,12.33-19.34,14.68-2.93,1.17-4.1,1.46-6.74,2.64,0,0,.29.3.58.3-4.39,12.04-8.2,17.91-12.3,24.66-4.39,7.63-8.79,14.68-11.72,23.19.88,0,1.17-.3,6.15-.88,10.25-3.82,19.34-6.75,29.3-9.39,6.16-1.76,13.18-3.52,19.34-5.58,2.34-.88,5.27-1.47,7.91-.88,1.17-5.29,1.46-11.75,1.76-17.91.3-7.34.88-13.8.88-19.38l-.29-29.35c1.76-4.41,5.28-4.11,7.62-3.52.59,0,1.17.29,1.76.29,5.86,1.76,5.86,9.1,5.86,12.03l-.88,29.65c11.72-4.99,26.66-10.86,36.91-13.51v-1.17l.88-4.4c0-6.17.58-11.45.88-17.03.58-5.58.88-12.33.88-19.96,4.98-3.23,12.31.59,13.18,4.99,0,3.82.3,7.05.3,10.28Z"/>
        <path class="cls-1" d="m1131.37,524.77c1.17,2.93.29,6.75-1.17,11.16-4.1,1.76-6.45,0-8.5-1.47-.88-.58-1.17-1.46-6.15-.88.58-9.1,1.46-15.26,2.34-21.72.88-5.28,1.76-7.04,2.05-15.56,2.34-.88,4.69-2.06,5.86-2.35.58-.29,1.46-.29,2.93-1.76,9.96,3.23,7.32,7.34,6.74,11.75-.59,2.05-1.17,3.82-.88,5.28l-3.22,15.56Zm14.65-204.32c3.22,4.7,3.22,8.81,3.22,12.62,0,2.64-.29,5.58,1.76,9.69-.88,4.11-2.05,9.1-2.63,13.21-.88,4.41-1.46,8.22-2.05,12.33,1.17,7.05-3.81,15.85-3.81,20.84,0,2.64.3,4.7-1.46,6.75-1.17,5.87-2.63,12.04-4.1,17.91-3.81,14.38-4.69,30.24-5.28,46.38-7.03-2.35-10.84-7.04-11.72-13.8-.88-19.96,2.34-36.4,5.57-54.3,2.64-15.85,5.57-31.71,5.57-48.44.58-3.23,1.17-5.28,1.46-7.63.58-4.7,1.17-8.81,3.81-16.73l9.67,1.18Z"/>
      </g>
    </g>
  </g>
</svg>