<svg width="20" height="20" viewBox="0 0 20 20" fill="none" xmlns="http://www.w3.org/2000/svg">
<mask id="mask0_27_23" style="mask-type:alpha" maskUnits="userSpaceOnUse" x="0" y="0" width="20" height="20">
<rect width="20" height="20" fill="#D9D9D9"/>
</mask>
<g mask="url(#mask0_27_23)">
<path d="M10.0001 14.1665C11.1529 14.1665 12.1355 13.7603 12.948 12.9478C13.7605 12.1353 14.1667 11.1526 14.1667 9.99984C14.1667 8.84706 13.7605 7.86442 12.948 7.05192C12.1355 6.23942 11.1529 5.83317 10.0001 5.83317C8.8473 5.83317 7.86466 6.23942 7.05216 7.05192C6.23966 7.86442 5.83341 8.84706 5.83341 9.99984C5.83341 11.1526 6.23966 12.1353 7.05216 12.9478C7.86466 13.7603 8.8473 14.1665 10.0001 14.1665ZM10.0001 18.3332C8.8473 18.3332 7.76397 18.1144 6.75008 17.6769C5.73619 17.2394 4.85425 16.6457 4.10425 15.8957C3.35425 15.1457 2.7605 14.2637 2.323 13.2498C1.8855 12.2359 1.66675 11.1526 1.66675 9.99984C1.66675 8.84706 1.8855 7.76373 2.323 6.74984C2.7605 5.73595 3.35425 4.854 4.10425 4.104C4.85425 3.354 5.73619 2.76025 6.75008 2.32275C7.76397 1.88525 8.8473 1.6665 10.0001 1.6665C11.1529 1.6665 12.2362 1.88525 13.2501 2.32275C14.264 2.76025 15.1459 3.354 15.8959 4.104C16.6459 4.854 17.2397 5.73595 17.6772 6.74984C18.1147 7.76373 18.3334 8.84706 18.3334 9.99984C18.3334 11.1526 18.1147 12.2359 17.6772 13.2498C17.2397 14.2637 16.6459 15.1457 15.8959 15.8957C15.1459 16.6457 14.264 17.2394 13.2501 17.6769C12.2362 18.1144 11.1529 18.3332 10.0001 18.3332ZM10.0001 16.6665C11.8612 16.6665 13.4376 16.0207 14.7292 14.729C16.0209 13.4373 16.6667 11.8609 16.6667 9.99984C16.6667 8.13873 16.0209 6.56234 14.7292 5.27067C13.4376 3.979 11.8612 3.33317 10.0001 3.33317C8.13897 3.33317 6.56258 3.979 5.27091 5.27067C3.97925 6.56234 3.33341 8.13873 3.33341 9.99984C3.33341 11.8609 3.97925 13.4373 5.27091 14.729C6.56258 16.0207 8.13897 16.6665 10.0001 16.6665Z" fill="#FF71AC"/>
</g>
</svg>
