<svg width="1360" height="330" viewBox="0 0 1360 330" fill="none" xmlns="http://www.w3.org/2000/svg">
<g clip-path="url(#clip0_52_1361)">
<path d="M245.883 152.712L160.256 228.098L74.6894 152.712V0H0V188.466L160.256 329.542L320.512 188.466V0H245.883V152.712Z" fill="white"/>
<path d="M880.502 152.712L794.935 228.098L709.368 152.712V0H708.945H634.679H634.256V152.712L548.69 228.098L463.123 152.712V0H388.434V188.466L548.69 329.542L671.782 221.129L794.935 329.542L955.191 188.466V0H880.502V152.712Z" fill="white"/>
<path d="M1360 0H1272.02L1195.51 126.714H1180.59H1165.66L1089.1 0H1001.12L1100.64 164.771L1001.12 329.542H1089.1L1165.66 202.828H1180.59H1195.51L1272.02 329.542H1360L1260.47 164.771L1360 0Z" fill="white"/>
</g>
<defs>
<clipPath id="clip0_52_1361">
<rect width="1360" height="329.542" fill="white"/>
</clipPath>
</defs>
</svg>
