<svg width="28" height="28" viewBox="0 0 28 28" fill="none" xmlns="http://www.w3.org/2000/svg">
<mask id="mask0_5_1310" style="mask-type:alpha" maskUnits="userSpaceOnUse" x="0" y="0" width="28" height="28">
<rect width="28" height="28" fill="#D9D9D9"/>
</mask>
<g mask="url(#mask0_5_1310)">
<path d="M22.7501 24.5002C22.264 24.5002 21.8508 24.33 21.5105 23.9897C21.1702 23.6495 21.0001 23.2363 21.0001 22.7502C21.0001 22.2641 21.1702 21.8509 21.5105 21.5106C21.8508 21.1703 22.264 21.0002 22.7501 21.0002C23.2362 21.0002 23.6494 21.1703 23.9897 21.5106C24.3299 21.8509 24.5001 22.2641 24.5001 22.7502C24.5001 23.2363 24.3299 23.6495 23.9897 23.9897C23.6494 24.33 23.2362 24.5002 22.7501 24.5002ZM11.6667 25.6668C9.7223 25.6668 8.06953 25.4384 6.70841 24.9814C5.3473 24.5245 4.66675 23.9752 4.66675 23.3335C4.66675 22.8863 4.98758 22.4877 5.62925 22.1377C6.27091 21.7877 7.11675 21.5057 8.16675 21.2918V23.3335H10.5001V2.3335L19.8334 6.8835L12.8334 10.5002V21.0585C14.5056 21.1557 15.8959 21.4134 17.0042 21.8314C18.1126 22.2495 18.6667 22.7502 18.6667 23.3335C18.6667 23.9752 17.9862 24.5245 16.6251 24.9814C15.264 25.4384 13.6112 25.6668 11.6667 25.6668Z" fill="white"/>
</g>
</svg>
