<svg width="18" height="18" viewBox="0 0 18 18" fill="none" xmlns="http://www.w3.org/2000/svg">
<mask id="mask0_34_755" style="mask-type:alpha" maskUnits="userSpaceOnUse" x="0" y="0" width="18" height="18">
<rect width="18" height="18" fill="#D9D9D9"/>
</mask>
<g mask="url(#mask0_34_755)">
<path d="M9 16.5005C7.9625 16.5005 6.9875 16.3036 6.075 15.9099C5.1625 15.5161 4.36875 14.9817 3.69375 14.3067C3.01875 13.6317 2.48437 12.838 2.09062 11.9255C1.69687 11.013 1.5 10.038 1.5 9.00049C1.5 7.96299 1.69687 6.98799 2.09062 6.07549C2.48437 5.16299 3.01875 4.36924 3.69375 3.69424C4.36875 3.01924 5.1625 2.48486 6.075 2.09111C6.9875 1.69736 7.9625 1.50049 9 1.50049C10.0375 1.50049 11.0125 1.69736 11.925 2.09111C12.8375 2.48486 13.6312 3.01924 14.3062 3.69424C14.9812 4.36924 15.5156 5.16299 15.9094 6.07549C16.3031 6.98799 16.5 7.96299 16.5 9.00049C16.5 10.038 16.3031 11.013 15.9094 11.9255C15.5156 12.838 14.9812 13.6317 14.3062 14.3067C13.6312 14.9817 12.8375 15.5161 11.925 15.9099C11.0125 16.3036 10.0375 16.5005 9 16.5005ZM9 15.0005C10.675 15.0005 12.0937 14.4192 13.2562 13.2567C14.4187 12.0942 15 10.6755 15 9.00049C15 7.32549 14.4187 5.90674 13.2562 4.74424C12.0937 3.58174 10.675 3.00049 9 3.00049C7.325 3.00049 5.90625 3.58174 4.74375 4.74424C3.58125 5.90674 3 7.32549 3 9.00049C3 10.6755 3.58125 12.0942 4.74375 13.2567C5.90625 14.4192 7.325 15.0005 9 15.0005Z" fill="white"/>
</g>
</svg>
